<svg width="115" height="146" viewBox="0 0 115 146" fill="none" xmlns="http://www.w3.org/2000/svg">
<path d="M58.1724 143.259L42 115H84L67.8276 143.259C65.6552 146.914 60.3448 146.914 58.1724 143.259Z" fill="#FDAD01"/>
<path d="M84.6785 85.282C79.1318 90.8198 71.7363 93.7732 63.6013 93.7732C46.5916 93.7732 32.91 80.1134 32.91 63.1308C32.91 46.1483 46.5916 32.4884 63.6013 32.4884C72.4759 32.4884 80.6109 36.1802 86.1576 42.4564C87.2669 41.718 88.0064 40.9796 89.1158 40.6105L115 26.2122C103.537 10.3372 84.6785 0 63.6013 0C28.4727 0 0 28.4273 0 63.5C0 98.5727 28.4727 127 63.2315 127C83.5691 127 101.318 117.77 113.151 103.003L88.746 88.6046C87.2669 87.4971 85.7878 86.3895 84.6785 85.282Z" fill="#FDAD01"/>
<path d="M90 40.0773C83.3294 32.7577 73.6941 28 62.9471 28C43.3059 28 27 43.7371 27 63.5C27 83.2629 42.9353 99 62.9471 99C72.9529 99 81.847 94.9742 88.5176 88.3866H88.1471C86.6647 87.6546 85.1824 86.5567 84.0706 85.4588C78.5118 90.5825 71.1 93.8763 62.9471 93.8763C45.9 93.8763 32.1882 80.335 32.1882 63.5C32.1882 46.6649 45.9 33.1237 62.9471 33.1237C71.8412 33.1237 79.9941 36.7835 85.5529 43.0052C86.6647 42.2732 87.4059 41.5412 88.5176 41.1753L90 40.0773Z" fill="url(#paint0_radial_139_3476)"/>
<defs>
<radialGradient id="paint0_radial_139_3476" cx="0" cy="0" r="1" gradientUnits="userSpaceOnUse" gradientTransform="translate(80.8046 66.6266) scale(86.5164 85.4404)">
<stop stop-color="#FDC500"/>
<stop offset="1" stop-color="#FC7802"/>
</radialGradient>
</defs>
</svg>
